<?xml version="1.0" encoding="UTF-8"?>
<svg version="1.1" xmlns="http://www.w3.org/2000/svg" width="597" height="597">
<path d="M0 0 C197.01 0 394.02 0 597 0 C597 197.01 597 394.02 597 597 C399.99 597 202.98 597 0 597 C0 399.99 0 202.98 0 0 Z " fill="#E2E2D9" transform="translate(0,0)"/>
<path d="M0 0 C3.82919612 1.50432705 5.78089547 3.55656194 8 7 C9.37647059 13.24705882 9.37647059 13.24705882 8 16 C9.65 15.67 11.3 15.34 13 15 C12.54177532 18.46941546 12.10868317 21.67395049 11 25 C12.98 24.34 14.96 23.68 17 23 C16.67 27.29 16.34 31.58 16 36 C18.31 35.34 20.62 34.68 23 34 C22.22095672 45.52164009 22.22095672 45.52164009 20 51 C21.11375 50.34 22.2275 49.68 23.375 49 C26.75 47 26.75 47 29 47 C29.13690844 54.72772107 28.75166913 62.30881404 28 70 C28.55429687 69.71125 29.10859375 69.4225 29.6796875 69.125 C30.40414063 68.75375 31.12859375 68.3825 31.875 68 C32.59429687 67.62875 33.31359375 67.2575 34.0546875 66.875 C36 66 36 66 38 66 C38.49542652 74.99107387 36.96034948 81.85170244 35 91 C56.45 91 77.9 91 100 91 C100 89.02 100 87.04 100 85 C101.98 85.33 103.96 85.66 106 86 C106 83.69 106 81.38 106 79 C107.32 79 108.64 79 110 79 C110.0825 77.7625 110.165 76.525 110.25 75.25 C110.63475459 72.01117036 110.90024003 71.12092117 113.0625 68.5 C113.701875 68.005 114.34125 67.51 115 67 C119.2164401 68.56164448 121.41869823 71.41485865 124 75 C124 76.32 124 77.64 124 79 C124.99 79 125.98 79 127 79 C127 81.31 127 83.62 127 86 C128.98 85.67 130.96 85.34 133 85 C133.29950643 92.4955425 132.17892442 99.24246841 130.625 106.5625 C130.40328125 107.64724609 130.1815625 108.73199219 129.953125 109.84960938 C128.76529395 115.6036027 127.47517694 121.31298608 126 127 C128.64 127 131.28 127 134 127 C133.9779248 127.57854736 133.95584961 128.15709473 133.93310547 128.75317383 C133.3029413 142.8455133 133.3029413 142.8455133 139.9375 154.625 C141.6042082 156.10705132 143.28824483 157.57021449 145 159 C145.66 159.99 146.32 160.98 147 162 C147.12377604 156.25260242 147.21442248 150.50598373 147.2746582 144.75756836 C147.29977281 142.80300377 147.33387131 140.84853283 147.37719727 138.89428711 C147.43798434 136.08163332 147.46623983 133.27022298 147.48828125 130.45703125 C147.51408768 129.58601273 147.5398941 128.7149942 147.56648254 127.81758118 C147.60877295 122.54034768 147.60877295 122.54034768 144.5 118.36328125 C143.675 117.58339844 142.85 116.80351562 142 116 C141.43237305 112.58666992 141.43237305 112.58666992 141.51171875 108.73046875 C141.51879349 108.04946609 141.52586823 107.36846344 141.53315735 106.66682434 C141.56099931 104.50590005 141.62370473 102.34763178 141.6875 100.1875 C141.71259668 98.71683448 141.73540747 97.24612807 141.75585938 95.77539062 C141.81078812 92.18274043 141.89698353 88.59162972 142 85 C146.75 86.875 146.75 86.875 149 88 C148.67 83.71 148.34 79.42 148 75 C149.65 75.33 151.3 75.66 153 76 C152.67 73.03 152.34 70.06 152 67 C153.32 67 154.64 67 156 67 C156 64.69 156 62.38 156 60 C156.99 60 157.98 60 159 60 C158.896875 58.989375 158.79375 57.97875 158.6875 56.9375 C159.06506153 52.18022477 160.63417038 49.35563014 164 46 C164.66 46 165.32 46 166 46 C169.09943287 49.17457064 170.90884406 51.99728468 171.3125 56.4375 C171.209375 57.283125 171.10625 58.12875 171 59 C171.99 59 172.98 59 174 59 C174.125 64.75 174.125 64.75 173 67 C174.65 67 176.3 67 178 67 C177.67 69.97 177.34 72.94 177 76 C178.32 76 179.64 76 181 76 C180.67 79.96 180.34 83.92 180 88 C181.65 87.01 183.3 86.02 185 85 C185.66 85 186.32 85 187 85 C187.12400035 89.32322461 187.21452256 93.64549602 187.2746582 97.9699707 C187.29973644 99.43955525 187.33380856 100.90901587 187.37719727 102.37817383 C187.43815499 104.49591681 187.46627316 106.61200576 187.48828125 108.73046875 C187.51446533 110.00301514 187.54064941 111.27556152 187.56762695 112.58666992 C187 116 187 116 184.5 118.13085938 C180.39435694 122.8427263 181.38653497 128.14675946 181.51171875 134.17578125 C181.51879349 135.45607712 181.52586823 136.73637299 181.53315735 138.0554657 C181.55218286 141.44745312 181.60124162 144.83835774 181.65667725 148.22991943 C181.70796801 151.69544834 181.73069211 155.16115347 181.75585938 158.62695312 C181.8109659 165.41843687 181.89462354 172.20912029 182 179 C182.43507874 178.18219559 182.87015747 177.36439117 183.31842041 176.52180481 C191.99488938 160.21715502 200.81569139 144.0261843 210 128 C210.99 128 211.98 128 213 128 C213.35626465 128.66136963 213.7125293 129.32273926 214.07958984 130.00415039 C217.80828797 136.88804024 221.66951334 143.68174797 225.625 150.4375 C226.2245752 151.46504395 226.82415039 152.49258789 227.44189453 153.55126953 C230.45326647 158.699693 233.49021413 163.8306757 236.578125 168.93359375 C237.13419434 169.85277588 237.69026367 170.77195801 238.26318359 171.71899414 C239.31914973 173.45905103 240.3792254 175.19662218 241.44384766 176.93139648 C241.9135498 177.70427002 242.38325195 178.47714355 242.8671875 179.2734375 C243.28081543 179.94810059 243.69444336 180.62276367 244.12060547 181.31787109 C245 183 245 183 245 185 C172.4 185 99.8 185 25 185 C24.67 168.17 24.34 151.34 24 134 C22.02 130.7 20.04 127.4 18 124 C16.87711126 121.96857004 15.77005071 119.92820987 14.6875 117.875 C12.68911209 114.11570076 10.66188156 110.38305371 8.5546875 106.68359375 C7.93460815 105.59425537 7.93460815 105.59425537 7.30200195 104.48291016 C6.48639769 103.05475929 5.66731431 101.62858875 4.84448242 100.20458984 C2 95.21885286 2 95.21885286 2 93 C-1.85008569 96.27257284 -4.16822977 100.84817337 -5.96484375 105.49609375 C-6.94262254 107.8612115 -8.01005164 109.62149602 -9.5 111.6875 C-28.31553451 140.24679345 -23.13942818 141.83198082 -24 184 C-95.61 184 -167.22 184 -241 184 C-239.46453059 178.62585706 -238.35336914 175.46833033 -235.625 170.875 C-234.90842405 169.65259579 -234.19230878 168.42992144 -233.4765625 167.20703125 C-233.0837207 166.5413916 -232.69087891 165.87575195 -232.28613281 165.18994141 C-229.82509063 160.99944247 -227.41377485 156.7803458 -225 152.5625 C-224.48872559 151.67006592 -223.97745117 150.77763184 -223.45068359 149.8581543 C-219.14698094 142.31808375 -215.01893172 134.6950722 -211 127 C-210.34 127 -209.68 127 -209 127 C-208.55914062 127.82564453 -208.55914062 127.82564453 -208.109375 128.66796875 C-205.55946689 133.39409154 -202.96102084 138.08467094 -200.28125 142.73828125 C-199.78399414 143.60235596 -199.28673828 144.46643066 -198.77441406 145.35668945 C-197.80028715 147.04581054 -196.82334907 148.73331555 -195.84277344 150.41870117 C-190.62586432 159.46760019 -185.83007841 168.74093951 -181 178 C-180.88398846 170.6546542 -180.79522622 163.30950691 -180.74093914 155.96342945 C-180.7148794 152.55203126 -180.6795511 149.14126126 -180.62280273 145.73022461 C-180.55792597 141.80590416 -180.5337893 137.88183526 -180.51171875 133.95703125 C-180.48591232 132.73603226 -180.4601059 131.51503326 -180.43351746 130.2570343 C-180.22786653 123.61230984 -180.22786653 123.61230984 -183.5 118.14453125 C-184.325 117.43683594 -185.15 116.72914063 -186 116 C-186.56762695 112.58666992 -186.56762695 112.58666992 -186.48828125 108.73046875 C-186.48120651 108.04946609 -186.47413177 107.36846344 -186.46684265 106.66682434 C-186.43900069 104.50590005 -186.37629527 102.34763178 -186.3125 100.1875 C-186.28740332 98.71683448 -186.26459253 97.24612807 -186.24414062 95.77539062 C-186.18921188 92.18274043 -186.10301647 88.59162972 -186 85 C-183.0280615 86.12451727 -180.66559313 87.22293791 -178 89 C-178.2165625 88.15695313 -178.433125 87.31390625 -178.65625 86.4453125 C-178.9346875 85.34960938 -179.213125 84.25390625 -179.5 83.125 C-179.7784375 82.03445312 -180.056875 80.94390625 -180.34375 79.8203125 C-181 77 -181 77 -181 75 C-179.35 75.33 -177.7 75.66 -176 76 C-176.495 71.545 -176.495 71.545 -177 67 C-175.68 67 -174.36 67 -173 67 C-173 64.36 -173 61.72 -173 59 C-171.02 59.495 -171.02 59.495 -169 60 C-169.0825 58.783125 -169.165 57.56625 -169.25 56.3125 C-169.27471684 52.83360474 -169.04111557 52.06167336 -167 49 C-166.01 48.01 -166.01 48.01 -165 47 C-163.25 47.125 -163.25 47.125 -161 48 C-158.14242198 51.32096905 -156.92147433 52.9399034 -157.25 57.375 C-157.62125 58.674375 -157.62125 58.674375 -158 60 C-157.01 60 -156.02 60 -155 60 C-154.505 63.465 -154.505 63.465 -154 67 C-152.02 67.495 -152.02 67.495 -150 68 C-150.33 70.64 -150.66 73.28 -151 76 C-149.68 75.67 -148.36 75.34 -147 75 C-146.78807779 80.19209404 -147.4087311 84.126739 -149 89 C-148.05125 88.34 -147.1025 87.68 -146.125 87 C-143 85 -143 85 -141 85 C-140.87599965 89.32322461 -140.78547744 93.64549602 -140.7253418 97.9699707 C-140.70026356 99.43955525 -140.66619144 100.90901587 -140.62280273 102.37817383 C-140.56184501 104.49591681 -140.53372684 106.61200576 -140.51171875 108.73046875 C-140.48553467 110.00301514 -140.45935059 111.27556152 -140.43237305 112.58666992 C-141 116 -141 116 -143.5 118.36328125 C-146.64902824 121.68452197 -146.56851767 123.39617339 -146.56648254 127.81758118 C-146.54067612 128.6885997 -146.51486969 129.55961823 -146.48828125 130.45703125 C-146.48120651 131.35999435 -146.47413177 132.26295746 -146.46684265 133.19328308 C-146.43893319 136.06721088 -146.37620232 138.93916472 -146.3125 141.8125 C-146.28741262 143.76494575 -146.26460022 145.71742215 -146.24414062 147.66992188 C-146.18911789 152.44737102 -146.10286998 157.22335126 -146 162 C-144.20580474 160.06478939 -142.41458671 158.1269646 -140.625 156.1875 C-139.86316406 155.36668945 -139.86316406 155.36668945 -139.0859375 154.52929688 C-134.08855559 149.19717946 -134.08855559 149.19717946 -132.5859375 142.33203125 C-132.54726562 141.43935547 -132.50859375 140.54667969 -132.46875 139.62695312 C-132.4378125 138.69818359 -132.406875 137.76941406 -132.375 136.8125 C-132.33632812 135.87212891 -132.29765625 134.93175781 -132.2578125 133.96289062 C-132.16356813 131.6421229 -132.07795975 129.32136252 -132 127 C-129.36 127 -126.72 127 -124 127 C-124.176521 126.32646484 -124.35304199 125.65292969 -124.53491211 124.95898438 C-127.90539666 111.95141889 -130.9597846 99.49226578 -131 86 C-128 85 -128 85 -125.8125 85.9375 C-125.214375 86.288125 -124.61625 86.63875 -124 87 C-124 84.69 -124 82.38 -124 80 C-123.01 80 -122.02 80 -121 80 C-121.04125 79.0925 -121.0825 78.185 -121.125 77.25 C-121.00468444 74.1217954 -120.6085292 72.61385994 -119 70 C-118.01 70 -117.02 70 -116 70 C-115.505 68.515 -115.505 68.515 -115 67 C-114.34 67 -113.68 67 -113 67 C-112.9175 67.61875 -112.835 68.2375 -112.75 68.875 C-112.18741541 71.18437567 -112.18741541 71.18437567 -109.9375 72.25 C-108.9784375 72.62125 -108.9784375 72.62125 -108 73 C-108 75.31 -108 77.62 -108 80 C-106.68 79.67 -105.36 79.34 -104 79 C-104.33 81.64 -104.66 84.28 -105 87 C-104.401875 86.67 -103.80375 86.34 -103.1875 86 C-101 85 -101 85 -98 85 C-98 86.98 -98 88.96 -98 91 C-76.55 91 -55.1 91 -33 91 C-33.99 88.03 -34.98 85.06 -36 82 C-36.29296875 77.83984375 -36.29296875 77.83984375 -36.1875 73.9375 C-36.14689453 71.97103516 -36.14689453 71.97103516 -36.10546875 69.96484375 C-36.07066406 68.98644531 -36.03585937 68.00804687 -36 67 C-31.88295306 67.72241198 -28.69512628 69.02353711 -25 71 C-25.32742188 70.36707031 -25.65484375 69.73414063 -25.9921875 69.08203125 C-27.36144606 64.8946475 -27.21471519 61.05939028 -27.125 56.6875 C-27.11597656 55.85154297 -27.10695313 55.01558594 -27.09765625 54.15429688 C-27.07420989 52.10274031 -27.03834266 50.05133223 -27 48 C-26.38640625 48.15339844 -25.7728125 48.30679688 -25.140625 48.46484375 C-24.43421875 48.64144531 -23.7278125 48.81804687 -23 49 C-21.66666667 49.33333333 -20.33333333 49.66666667 -19 50 C-19.33 49.030625 -19.66 48.06125 -20 47.0625 C-21.26873752 42.70233163 -21.18385528 38.50445434 -21 34 C-18.03 34.495 -18.03 34.495 -15 35 C-15.165 34.319375 -15.33 33.63875 -15.5 32.9375 C-16.07089059 29.5835178 -16.06659023 26.39610195 -16 23 C-14.35 23 -12.7 23 -11 23 C-11 20.03 -11 17.06 -11 14 C-9.02 14.495 -9.02 14.495 -7 15 C-7.12375 14.175 -7.2475 13.35 -7.375 12.5 C-6.81639065 7.28631274 -3.6603452 3.6603452 0 0 Z " fill="#CEAA65" transform="translate(297,131)"/>
<path d="M0 0 C3.09943287 3.17457064 4.90884406 5.99728468 5.3125 10.4375 C5.1578125 11.7059375 5.1578125 11.7059375 5 13 C5.99 13 6.98 13 8 13 C8.125 18.75 8.125 18.75 7 21 C8.65 21 10.3 21 12 21 C11.67 23.97 11.34 26.94 11 30 C12.32 30 13.64 30 15 30 C14.67 33.96 14.34 37.92 14 42 C16.475 40.515 16.475 40.515 19 39 C19.66 39 20.32 39 21 39 C21.12400035 43.32322461 21.21452256 47.64549602 21.2746582 51.9699707 C21.29973644 53.43955525 21.33380856 54.90901587 21.37719727 56.37817383 C21.43815499 58.49591681 21.46627316 60.61200576 21.48828125 62.73046875 C21.51446533 64.00301514 21.54064941 65.27556152 21.56762695 66.58666992 C21 70 21 70 18.5 72.13085938 C14.39435694 76.8427263 15.38653497 82.14675946 15.51171875 88.17578125 C15.51879349 89.45607712 15.52586823 90.73637299 15.53315735 92.0554657 C15.55218286 95.44745312 15.60124162 98.83835774 15.65667725 102.22991943 C15.70796801 105.69544834 15.73069211 109.16115347 15.75585938 112.62695312 C15.8109659 119.41843687 15.89462354 126.20912029 16 133 C16.43507874 132.18219559 16.87015747 131.36439117 17.31842041 130.52180481 C25.99488938 114.21715502 34.81569139 98.0261843 44 82 C44.99 82 45.98 82 47 82 C47.35553955 82.66064453 47.7110791 83.32128906 48.07739258 84.00195312 C51.81897932 90.9132339 55.70853116 97.72312665 59.6875 104.5 C60.91287533 106.596287 62.1381341 108.69264214 63.36328125 110.7890625 C65.145314 113.83437424 66.92878651 116.87880538 68.71630859 119.92089844 C70.27277967 122.57019118 71.82426859 125.22234497 73.375 127.875 C73.84510498 128.67099609 74.31520996 129.46699219 74.79956055 130.28710938 C78 135.77322992 78 135.77322992 78 138 C6.06 138 -65.88 138 -140 138 C-140 122.16 -140 106.32 -140 90 C-104.69 90 -69.38 90 -33 90 C-32.505 95.445 -32.505 95.445 -32 101 C-30.1781335 103.69039676 -28.86378434 105.38293538 -26.5625 107.5 C-25.56260438 108.48837313 -24.56386342 109.47791606 -23.56640625 110.46875 C-22.71949219 111.3040625 -21.87257813 112.139375 -21 113 C-20.01 114.485 -20.01 114.485 -19 116 C-18.87622396 110.25260242 -18.78557752 104.50598373 -18.7253418 98.75756836 C-18.70022719 96.80300377 -18.66612869 94.84853283 -18.62280273 92.89428711 C-18.56201566 90.08163332 -18.53376017 87.27022298 -18.51171875 84.45703125 C-18.48591232 83.58601273 -18.4601059 82.7149942 -18.43351746 81.81758118 C-18.39122705 76.54034768 -18.39122705 76.54034768 -21.5 72.36328125 C-22.325 71.58339844 -23.15 70.80351562 -24 70 C-24.56762695 66.58666992 -24.56762695 66.58666992 -24.48828125 62.73046875 C-24.48120651 62.04946609 -24.47413177 61.36846344 -24.46684265 60.66682434 C-24.43900069 58.50590005 -24.37629527 56.34763178 -24.3125 54.1875 C-24.28740332 52.71683448 -24.26459253 51.24612807 -24.24414062 49.77539062 C-24.18921188 46.18274043 -24.10301647 42.59162972 -24 39 C-19.25 40.875 -19.25 40.875 -17 42 C-17.33 37.71 -17.66 33.42 -18 29 C-16.35 29.33 -14.7 29.66 -13 30 C-13.495 25.545 -13.495 25.545 -14 21 C-12.68 21 -11.36 21 -10 21 C-10 18.69 -10 16.38 -10 14 C-9.01 14 -8.02 14 -7 14 C-7.103125 12.989375 -7.20625 11.97875 -7.3125 10.9375 C-6.98652731 6.83024406 -5.06619559 0 0 0 Z " fill="#A58141" transform="translate(463,177)"/>
<path d="M0 0 C1.75 0.125 1.75 0.125 4 1 C6.85757802 4.32096905 8.07852567 5.9399034 7.75 10.375 C7.37875 11.674375 7.37875 11.674375 7 13 C7.99 13 8.98 13 10 13 C10.495 16.465 10.495 16.465 11 20 C12.98 20.495 12.98 20.495 15 21 C14.67 23.64 14.34 26.28 14 29 C15.32 28.67 16.64 28.34 18 28 C18.21192221 33.19209404 17.5912689 37.126739 16 42 C16.94875 41.34 17.8975 40.68 18.875 40 C22 38 22 38 24 38 C24.12400035 42.32322461 24.21452256 46.64549602 24.2746582 50.9699707 C24.29973644 52.43955525 24.33380856 53.90901587 24.37719727 55.37817383 C24.43815499 57.49591681 24.46627316 59.61200576 24.48828125 61.73046875 C24.51446533 63.00301514 24.54064941 64.27556152 24.56762695 65.58666992 C24 69 24 69 21.5 71.36328125 C18.35097176 74.68452197 18.43148233 76.39617339 18.43351746 80.81758118 C18.45932388 81.6885997 18.48513031 82.55961823 18.51171875 83.45703125 C18.51879349 84.35999435 18.52586823 85.26295746 18.53315735 86.19328308 C18.56106681 89.06721088 18.62379768 91.93916472 18.6875 94.8125 C18.71258738 96.76494575 18.73539978 98.71742215 18.75585938 100.66992188 C18.81088211 105.44737102 18.89713002 110.22335126 19 115 C20.79419526 113.06478939 22.58541329 111.1269646 24.375 109.1875 C25.13683594 108.36668945 25.13683594 108.36668945 25.9140625 107.52929688 C32.21936189 100.68472846 32.02882117 99.68296713 33 89 C68.64 89 104.28 89 141 89 C141 104.84 141 120.68 141 137 C69.39 137 -2.22 137 -76 137 C-74.46453059 131.62585706 -73.35336914 128.46833033 -70.625 123.875 C-69.90842405 122.65259579 -69.19230878 121.42992144 -68.4765625 120.20703125 C-68.0837207 119.5413916 -67.69087891 118.87575195 -67.28613281 118.18994141 C-64.82509063 113.99944247 -62.41377485 109.7803458 -60 105.5625 C-59.48872559 104.67006592 -58.97745117 103.77763184 -58.45068359 102.8581543 C-54.14698094 95.31808375 -50.01893172 87.6950722 -46 80 C-45.34 80 -44.68 80 -44 80 C-43.55914062 80.82564453 -43.55914062 80.82564453 -43.109375 81.66796875 C-40.55946689 86.39409154 -37.96102084 91.08467094 -35.28125 95.73828125 C-34.78399414 96.60235596 -34.28673828 97.46643066 -33.77441406 98.35668945 C-32.80028715 100.04581054 -31.82334907 101.73331555 -30.84277344 103.41870117 C-25.62586432 112.46760019 -20.83007841 121.74093951 -16 131 C-15.88398846 123.6546542 -15.79522622 116.30950691 -15.74093914 108.96342945 C-15.7148794 105.55203126 -15.6795511 102.14126126 -15.62280273 98.73022461 C-15.55792597 94.80590416 -15.5337893 90.88183526 -15.51171875 86.95703125 C-15.47300911 85.12553276 -15.47300911 85.12553276 -15.43351746 83.2570343 C-15.22786653 76.61230984 -15.22786653 76.61230984 -18.5 71.14453125 C-19.325 70.43683594 -20.15 69.72914063 -21 69 C-21.56762695 65.58666992 -21.56762695 65.58666992 -21.48828125 61.73046875 C-21.48120651 61.04946609 -21.47413177 60.36846344 -21.46684265 59.66682434 C-21.43900069 57.50590005 -21.37629527 55.34763178 -21.3125 53.1875 C-21.28740332 51.71683448 -21.26459253 50.24612807 -21.24414062 48.77539062 C-21.18921188 45.18274043 -21.10301647 41.59162972 -21 38 C-18.0280615 39.12451727 -15.66559313 40.22293791 -13 42 C-13.2165625 41.15695313 -13.433125 40.31390625 -13.65625 39.4453125 C-13.9346875 38.34960938 -14.213125 37.25390625 -14.5 36.125 C-14.7784375 35.03445312 -15.056875 33.94390625 -15.34375 32.8203125 C-16 30 -16 30 -16 28 C-14.35 28.33 -12.7 28.66 -11 29 C-11.495 24.545 -11.495 24.545 -12 20 C-10.68 20 -9.36 20 -8 20 C-8 17.36 -8 14.72 -8 12 C-6.68 12.33 -5.36 12.66 -4 13 C-4.0825 11.783125 -4.165 10.56625 -4.25 9.3125 C-4.27471684 5.83360474 -4.04111557 5.06167336 -2 2 C-1.34 1.34 -0.68 0.68 0 0 Z " fill="#A68240" transform="translate(132,178)"/>
<path d="M0 0 C5.88483546 4.71225185 10.40318652 10.96514847 11.78515625 18.4921875 C12.98420567 30.34642604 11.5533994 38.57832277 4.78515625 48.4921875 C-0.8629614 55.30486549 -8.11161756 58.96332752 -16.87109375 59.87109375 C-24.55612829 60.10932982 -30.63833381 59.58245588 -37.21484375 55.4921875 C-37.8490625 55.11835938 -38.48328125 54.74453125 -39.13671875 54.359375 C-45.65381213 50.15390021 -49.94984761 43.90748003 -52.21484375 36.4921875 C-52.6748417 33.21171285 -52.73946435 29.98913204 -52.71484375 26.6796875 C-52.70912354 25.7925708 -52.70340332 24.9054541 -52.69750977 23.99145508 C-52.44964732 14.91401447 -49.92395237 9.15780958 -43.71484375 2.5546875 C-31.96419531 -8.18732158 -13.11240365 -8.92660989 0 0 Z " fill="#080807" transform="translate(337.21484375,344.5078125)"/>
<path d="M0 0 C1.15113281 -0.04898437 2.30226563 -0.09796875 3.48828125 -0.1484375 C6.6875 0.375 6.6875 0.375 8.67602539 2.53979492 C10.68478794 5.3711773 12.40184355 8.21825826 14.0703125 11.26171875 C14.68003906 12.36451172 15.28976562 13.46730469 15.91796875 14.60351562 C16.54316406 15.74498047 17.16835938 16.88644531 17.8125 18.0625 C19.06204924 20.33891913 20.31451017 22.61374319 21.5703125 24.88671875 C22.12090332 25.89178467 22.67149414 26.89685059 23.23876953 27.93237305 C24.59328656 30.44576457 24.59328656 30.44576457 26.6875 32.375 C27.08541748 31.68986328 27.48333496 31.00472656 27.89331055 30.29882812 C29.71919528 27.15676824 31.54708229 24.01587758 33.375 20.875 C34.00083984 19.79734375 34.62667969 18.7196875 35.27148438 17.609375 C36.502313 15.49570072 37.74117586 13.38668187 38.98852539 11.28271484 C40.0379972 9.48659339 41.05714372 7.6718741 42.02514648 5.83056641 C43.12844838 3.81229295 44.13010528 2.06682247 45.6875 0.375 C48.94921875 -0.4765625 48.94921875 -0.4765625 52.375 -0.25 C54.08236328 -0.17652344 54.08236328 -0.17652344 55.82421875 -0.1015625 C58.6875 0.375 58.6875 0.375 60.6875 2.375 C60.94146729 4.87988281 60.94146729 4.87988281 60.94628906 8.078125 C60.95259338 9.27276367 60.95889771 10.46740234 60.96539307 11.69824219 C60.9613446 12.99407227 60.95729614 14.28990234 60.953125 15.625 C60.95447178 16.96256582 60.95641243 18.30013117 60.95892334 19.63769531 C60.961874 22.44210466 60.95757894 25.24638669 60.94824219 28.05078125 C60.93684754 31.64904922 60.94340734 35.24701886 60.95538712 38.84527588 C60.96260736 41.60760758 60.96031706 44.36986833 60.95513153 47.13220215 C60.95314475 49.10538933 60.95922842 51.07857926 60.96539307 53.05175781 C60.95593658 54.84371582 60.95593658 54.84371582 60.94628906 56.671875 C60.94469788 57.72729492 60.94310669 58.78271484 60.94146729 59.87011719 C60.6875 62.375 60.6875 62.375 58.6875 64.375 C56.12109375 64.60546875 56.12109375 64.60546875 53.125 64.5625 C52.13371094 64.55605469 51.14242187 64.54960937 50.12109375 64.54296875 C47.6875 64.375 47.6875 64.375 46.6875 63.375 C46.52753834 60.78346893 46.42811303 58.2154798 46.37109375 55.62109375 C46.35031265 54.84564713 46.32953156 54.0702005 46.30812073 53.27125549 C46.24254198 50.78509692 46.18370201 48.29882955 46.125 45.8125 C46.08182267 44.13084796 46.03820864 42.44920706 45.99414062 40.76757812 C45.88685221 36.63683129 45.78560868 32.50597464 45.6875 28.375 C43.54114525 32.33305082 41.39550441 36.29148819 39.25 40.25 C38.63833984 41.37792969 38.02667969 42.50585938 37.39648438 43.66796875 C36.81318359 44.74433594 36.22988281 45.82070313 35.62890625 46.9296875 C34.81981812 48.42218018 34.81981812 48.42218018 33.99438477 49.94482422 C33.20581978 51.41117502 32.43208303 52.88583395 31.6875 54.375 C28.3875 54.375 25.0875 54.375 21.6875 54.375 C19.56087542 50.62591908 17.43648318 46.8755779 15.3125 43.125 C14.40757812 41.52978516 14.40757812 41.52978516 13.484375 39.90234375 C12.90429688 38.87753906 12.32421875 37.85273438 11.7265625 36.796875 C11.19240723 35.85424805 10.65825195 34.91162109 10.10791016 33.94042969 C8.90908318 31.77520558 7.7720713 29.5990576 6.6875 27.375 C6.66244385 28.46031006 6.6373877 29.54562012 6.61157227 30.66381836 C6.51766245 34.676316 6.41740233 38.68863382 6.31518555 42.70092773 C6.27177427 44.44014288 6.23010388 46.17940235 6.19018555 47.91870117 C6.13263232 50.41338488 6.0688958 52.9078441 6.00390625 55.40234375 C5.97883751 56.5757859 5.97883751 56.5757859 5.95326233 57.77293396 C5.80137171 63.26112829 5.80137171 63.26112829 4.6875 64.375 C2.85634117 64.47351171 1.02130067 64.50472629 -0.8125 64.5 C-1.8128125 64.50257813 -2.813125 64.50515625 -3.84375 64.5078125 C-6.3125 64.375 -6.3125 64.375 -7.3125 63.375 C-7.41170863 61.44738183 -7.44049365 59.51610646 -7.44189453 57.5859375 C-7.44504669 56.3479541 -7.44819885 55.1099707 -7.45144653 53.83447266 C-7.44965675 52.47298141 -7.4476058 51.11149049 -7.4453125 49.75 C-7.44598559 48.36376936 -7.44695566 46.97753883 -7.44821167 45.59130859 C-7.4496884 42.68260578 -7.4475349 39.77393363 -7.44287109 36.86523438 C-7.43717381 33.12903402 -7.44045294 29.39290548 -7.44644356 25.65670776 C-7.45004985 22.79320734 -7.44891027 19.92972407 -7.44631577 17.06622314 C-7.44564668 15.68825268 -7.44647426 14.31028068 -7.44879532 12.93231201 C-7.45132292 11.00956246 -7.44679024 9.08680748 -7.44189453 7.1640625 C-7.44109894 6.06787598 -7.44030334 4.97168945 -7.43948364 3.84228516 C-7.19351774 -0.93681876 -4.17085437 0.12062538 0 0 Z " fill="#090808" transform="translate(521.3125,338.625)"/>
<path d="M0 0 C1.26585937 -0.00257813 2.53171875 -0.00515625 3.8359375 -0.0078125 C4.82980469 -0.00152832 4.82980469 -0.00152832 5.84375 0.00488281 C7.83851805 0.0154728 9.83336377 0.00399082 11.828125 -0.0078125 C28.46028155 0.02585583 28.46028155 0.02585583 34.5546875 4.578125 C35.09738281 4.96613281 35.64007813 5.35414063 36.19921875 5.75390625 C39.23320858 8.72644818 40.61527975 11.30867199 41.17578125 15.53515625 C41.19016772 28.58368897 41.19016772 28.58368897 36.7421875 34.265625 C34.19802683 36.62362758 31.62595865 38.3431109 28.7421875 40.265625 C29.17152588 40.81500732 29.60086426 41.36438965 30.04321289 41.93041992 C31.97954494 44.42615433 33.89214028 46.93912477 35.8046875 49.453125 C36.48080078 50.31744141 37.15691406 51.18175781 37.85351562 52.07226562 C38.48837891 52.91337891 39.12324219 53.75449219 39.77734375 54.62109375 C40.369104 55.39090576 40.96086426 56.16071777 41.57055664 56.95385742 C43.03069079 59.83487644 42.68070205 61.23944217 41.7421875 64.265625 C30.4683841 65.46994821 30.4683841 65.46994821 26.89453125 62.9765625 C25.32151552 60.82111821 24.04646552 58.59517311 22.7421875 56.265625 C21.15289626 53.74641425 19.48478632 51.28734107 17.8046875 48.828125 C17.21167847 47.88718994 17.21167847 47.88718994 16.60668945 46.92724609 C14.24983375 43.43854544 13.0888 42.34828694 8.92578125 41.35546875 C7.87519531 41.32582031 6.82460938 41.29617188 5.7421875 41.265625 C5.74742432 41.9268335 5.75266113 42.58804199 5.75805664 43.26928711 C5.77876406 46.24722351 5.79182762 49.22514482 5.8046875 52.203125 C5.81306641 53.24404297 5.82144531 54.28496094 5.83007812 55.35742188 C5.83330078 56.34677734 5.83652344 57.33613281 5.83984375 58.35546875 C5.84508057 59.27191162 5.85031738 60.18835449 5.85571289 61.13256836 C5.7421875 63.265625 5.7421875 63.265625 4.7421875 64.265625 C2.93291469 64.39050258 1.11822643 64.44133346 -0.6953125 64.453125 C-1.68402344 64.46730469 -2.67273438 64.48148437 -3.69140625 64.49609375 C-6.2578125 64.265625 -6.2578125 64.265625 -8.2578125 62.265625 C-8.51177979 59.76074219 -8.51177979 59.76074219 -8.51660156 56.5625 C-8.52290588 55.36786133 -8.52921021 54.17322266 -8.53570557 52.94238281 C-8.5316571 51.64655273 -8.52760864 50.35072266 -8.5234375 49.015625 C-8.52478428 47.67805918 -8.52672493 46.34049383 -8.52923584 45.00292969 C-8.5321865 42.19852034 -8.52789144 39.39423831 -8.51855469 36.58984375 C-8.50716004 32.99157578 -8.51371984 29.39360614 -8.52569962 25.79534912 C-8.53291986 23.03301742 -8.53062956 20.27075667 -8.52544403 17.50842285 C-8.52345725 15.53523567 -8.52954092 13.56204574 -8.53570557 11.58886719 C-8.52940125 10.39422852 -8.52309692 9.19958984 -8.51660156 7.96875 C-8.51501038 6.91333008 -8.51341919 5.85791016 -8.51177979 4.77050781 C-7.96854359 -0.58743823 -4.52745871 0.00885381 0 0 Z " fill="#0A0A0A" transform="translate(370.2578125,338.734375)"/>
<path d="M0 0 C3.44323756 0.06196057 5.2881217 0.17918515 8.0234375 2.3203125 C10.18297403 5.00834321 12.05269181 7.79904846 13.9375 10.6875 C14.90275483 12.05770254 15.87455229 13.42331083 16.8515625 14.78515625 C20.68843969 20.14048522 24.46134883 25.53851043 28.19140625 30.96875 C29.11759766 32.31453125 29.11759766 32.31453125 30.0625 33.6875 C30.58070312 34.450625 31.09890625 35.21375 31.6328125 36 C32.84747568 37.82334694 32.84747568 37.82334694 34.9375 38.6875 C34.93226318 37.57189697 34.92702637 36.45629395 34.92163086 35.30688477 C34.90358225 31.18270667 34.89206851 27.05853209 34.88256836 22.93432617 C34.87752782 21.14655979 34.87069546 19.35879755 34.86206055 17.57104492 C34.8499827 15.00698832 34.84426906 12.44298603 34.83984375 9.87890625 C34.83468246 9.0747377 34.82952118 8.27056915 34.82420349 7.44203186 C34.82400785 5.52348285 34.87548017 3.60504632 34.9375 1.6875 C35.9375 0.6875 35.9375 0.6875 38.40625 0.5546875 C39.90671875 0.55855469 39.90671875 0.55855469 41.4375 0.5625 C42.4378125 0.55992187 43.438125 0.55734375 44.46875 0.5546875 C46.9375 0.6875 46.9375 0.6875 47.9375 1.6875 C48.04190176 3.57903876 48.07604891 5.47449063 48.08276367 7.36889648 C48.08914352 8.58363144 48.09552338 9.79836639 48.10209656 11.0499115 C48.10362513 12.38613851 48.10473914 13.72236606 48.10546875 15.05859375 C48.10867973 16.42000871 48.11204368 17.78142331 48.11555481 19.14283752 C48.12155216 22.00026245 48.1233941 24.85765711 48.12280273 27.71508789 C48.12270109 31.38174251 48.13635258 35.04820356 48.15357494 38.71481228 C48.16467819 41.52774451 48.16672246 44.34062971 48.16619301 47.15358162 C48.16737569 48.50561248 48.17181353 49.85764447 48.17952538 51.20965385 C48.18929073 53.09864701 48.18519195 54.98769661 48.18041992 56.87670898 C48.18184494 57.95291 48.18326996 59.02911102 48.18473816 60.13792419 C47.9375 62.6875 47.9375 62.6875 45.9375 64.6875 C41.95780026 66.07112321 38.92792161 66.03595286 34.9375 64.6875 C30.63782972 60.99715278 27.67022133 55.90190635 24.59667969 51.20068359 C22.19589998 47.56418767 19.67355457 44.01666427 17.15942383 40.45800781 C14.80128898 37.11362324 12.4717896 33.74981705 10.14575195 30.38305664 C9.0460831 28.74091595 9.0460831 28.74091595 7.9375 27.6875 C7.91244385 28.73728027 7.8873877 29.78706055 7.86157227 30.86865234 C7.76753733 34.75631324 7.6673072 38.64379381 7.56518555 42.53125 C7.52182183 44.21512642 7.4801478 45.89904723 7.44018555 47.58300781 C7.38251766 50.00078724 7.3188135 52.41834295 7.25390625 54.8359375 C7.22883751 55.96882706 7.22883751 55.96882706 7.20326233 57.12460327 C7.05137171 62.45975659 7.05137171 62.45975659 5.9375 64.6875 C4.12507948 64.71437279 2.31254767 64.73383715 0.5 64.75 C-0.50933594 64.76160156 -1.51867187 64.77320313 -2.55859375 64.78515625 C-5.0625 64.6875 -5.0625 64.6875 -6.0625 63.6875 C-6.16170863 61.75988183 -6.19049365 59.82860646 -6.19189453 57.8984375 C-6.19504669 56.6604541 -6.19819885 55.4224707 -6.20144653 54.14697266 C-6.19965675 52.78548141 -6.1976058 51.42399049 -6.1953125 50.0625 C-6.19598559 48.67626936 -6.19695566 47.29003883 -6.19821167 45.90380859 C-6.1996884 42.99510578 -6.1975349 40.08643363 -6.19287109 37.17773438 C-6.18717381 33.44153402 -6.19045294 29.70540548 -6.19644356 25.96920776 C-6.20004985 23.10570734 -6.19891027 20.24222407 -6.19631577 17.37872314 C-6.19564668 16.00075268 -6.19647426 14.62278068 -6.19879532 13.24481201 C-6.20132292 11.32206246 -6.19679024 9.39930748 -6.19189453 7.4765625 C-6.19109894 6.38037598 -6.19030334 5.28418945 -6.18948364 4.15478516 C-5.96916505 -0.12599287 -3.88859732 0.32627845 0 0 Z " fill="#050505" transform="translate(91.0625,338.3125)"/>
<path d="M0 0 C1.59134766 -0.02513672 1.59134766 -0.02513672 3.21484375 -0.05078125 C6.53002092 0.37214259 7.01216523 0.78828066 9.0625 3.3125 C10.25846863 5.72763062 10.25846863 5.72763062 11.42260742 8.62255859 C11.86283737 9.7073349 12.30306732 10.79211121 12.75663757 11.90975952 C13.45524651 13.66759262 13.45524651 13.66759262 14.16796875 15.4609375 C14.6520369 16.66561676 15.13610504 17.87029602 15.63484192 19.11148071 C16.65775236 21.6598755 17.67494051 24.21046143 18.68823242 26.76269531 C19.98510821 30.02770743 21.29663488 33.28659599 22.61260509 36.54395103 C23.86850121 39.65882157 25.11135185 42.77884332 26.35546875 45.8984375 C27.06318672 47.65019791 27.06318672 47.65019791 27.78520203 49.43734741 C28.43136223 51.07396835 28.43136223 51.07396835 29.09057617 52.74365234 C29.47235519 53.70056976 29.85413422 54.65748718 30.2474823 55.6434021 C31.0811234 58.37348969 31.30035879 60.4767574 31.0625 63.3125 C30.0625 64.3125 30.0625 64.3125 27.33984375 64.41015625 C26.23769531 64.39855469 25.13554688 64.38695312 24 64.375 C22.89527344 64.36597656 21.79054687 64.35695313 20.65234375 64.34765625 C19.79769531 64.33605469 18.94304688 64.32445312 18.0625 64.3125 C17.38895501 62.87820999 16.72390299 61.43992943 16.0625 60 C15.69125 59.19949219 15.32 58.39898437 14.9375 57.57421875 C14.0625 55.3125 14.0625 55.3125 14.0625 52.3125 C4.8225 52.3125 -4.4175 52.3125 -13.9375 52.3125 C-14.2675 54.2925 -14.5975 56.2725 -14.9375 58.3125 C-15.87692486 60.34165769 -16.86348385 62.35125312 -17.9375 64.3125 C-19.91659398 64.33936553 -21.89578971 64.35883375 -23.875 64.375 C-24.97714844 64.38660156 -26.07929688 64.39820313 -27.21484375 64.41015625 C-29.9375 64.3125 -29.9375 64.3125 -30.9375 63.3125 C-30.77528365 55.14085131 -27.14301001 48.05390295 -23.9375 40.6875 C-23.04839267 38.61555828 -22.1625733 36.54222982 -21.27680969 34.46885681 C-20.68386961 33.08182652 -20.08970395 31.6953195 -19.49430847 30.30934143 C-16.42977837 23.16660401 -13.52012472 15.9623866 -10.65429688 8.73779297 C-10.32107422 7.91037598 -9.98785156 7.08295898 -9.64453125 6.23046875 C-9.3606958 5.51656982 -9.07686035 4.8026709 -8.78442383 4.06713867 C-6.72110496 -0.20760122 -4.39210705 0.0159713 0 0 Z " fill="#070706" transform="translate(41.9375,338.6875)"/>
<path d="M0 0 C0.66 0.66 1.32 1.32 2 2 C1.6700572 5.39770885 0.1807479 7.2681087 -2.0625 9.75 C-2.61035156 10.36359375 -3.15820312 10.9771875 -3.72265625 11.609375 C-4.14417969 12.06828125 -4.56570312 12.5271875 -5 13 C-8.89368776 12.20806351 -10.90587089 10.47530328 -14 8 C-18.78616806 6.46406615 -24.21958153 6.00078711 -29 7.71875 C-34.27367642 10.53743912 -37.69646297 14.54992941 -40 20 C-40.94016558 27.04030973 -40.29927039 33.21957853 -36 39 C-31.69565338 43.4031709 -28.44015823 45.15773915 -22.3125 45.25 C-17.05847802 45.22470988 -13.58703499 44.50201908 -9 42 C-8.67 39.03 -8.34 36.06 -8 33 C-9.49853516 33.01740234 -9.49853516 33.01740234 -11.02734375 33.03515625 C-12.31769531 33.04417969 -13.60804688 33.05320312 -14.9375 33.0625 C-16.22527344 33.07410156 -17.51304687 33.08570313 -18.83984375 33.09765625 C-22 33 -22 33 -23 32 C-23.09823937 30.33570949 -23.12973631 28.66718069 -23.125 27 C-23.12886719 25.63875 -23.12886719 25.63875 -23.1328125 24.25 C-23 22 -23 22 -22 21 C-20.07332493 20.91251793 -18.14348139 20.89302666 -16.21484375 20.90234375 C-15.04501953 20.90556641 -13.87519531 20.90878906 -12.66992188 20.91210938 C-11.43822266 20.92048828 -10.20652344 20.92886719 -8.9375 20.9375 C-7.08415039 20.94426758 -7.08415039 20.94426758 -5.19335938 20.95117188 C-2.12885883 20.96300392 0.93554721 20.97948827 4 21 C4.14532035 25.56216465 4.23408477 30.12373362 4.3125 34.6875 C4.35439453 35.98107422 4.39628906 37.27464844 4.43945312 38.60742188 C4.45556641 39.85458984 4.47167969 41.10175781 4.48828125 42.38671875 C4.51446533 43.53358154 4.54064941 44.68044434 4.56762695 45.86206055 C3.82501081 49.96737034 2.16949075 51.38302147 -1 54 C-10.35494147 59.21148734 -20.08718907 60.46934997 -30.56640625 58.5234375 C-39.82848111 55.84951676 -46.15805491 50.85171294 -50.80859375 42.46484375 C-51.20175781 41.65144531 -51.59492188 40.83804688 -52 40 C-52.37640625 39.24332031 -52.7528125 38.48664063 -53.140625 37.70703125 C-55.53764068 30.15643186 -55.27261885 18.44639143 -52.23828125 11.0546875 C-47.78274637 3.66159176 -41.41527343 -3.33549662 -32.83203125 -5.5625 C-20.91213442 -7.40391854 -10.21476182 -7.0408894 0 0 Z " fill="#070706" transform="translate(207,345)"/>
<path d="M0 0 C1.093125 0.00257813 2.18625 0.00515625 3.3125 0.0078125 C4.405625 0.00523437 5.49875 0.00265625 6.625 0 C9.3125 0.1328125 9.3125 0.1328125 10.3125 1.1328125 C10.47014405 2.91150976 10.56350677 4.69599726 10.62890625 6.48046875 C10.69174805 8.09985352 10.69174805 8.09985352 10.75585938 9.75195312 C10.79517578 10.88826172 10.83449219 12.02457031 10.875 13.1953125 C10.91818359 14.33548828 10.96136719 15.47566406 11.00585938 16.65039062 C11.11232839 19.47773445 11.21434207 22.30516988 11.3125 25.1328125 C17.2417017 18.73323572 22.94780235 12.25606474 28.40234375 5.4453125 C29.03269531 4.6821875 29.66304688 3.9190625 30.3125 3.1328125 C30.75335938 2.53855469 31.19421875 1.94429688 31.6484375 1.33203125 C34.30933726 -0.58556553 36.79101147 -0.15000399 40 -0.0546875 C41.76923828 -0.01408203 41.76923828 -0.01408203 43.57421875 0.02734375 C44.47785156 0.06214844 45.38148438 0.09695313 46.3125 0.1328125 C46.95288086 1.93896484 46.95288086 1.93896484 47.3125 4.1328125 C45.5781056 6.52778495 43.86876036 8.59839325 41.875 10.7578125 C40.76558845 12.00141127 39.65752218 13.24621142 38.55078125 14.4921875 C38.00115723 15.10513672 37.4515332 15.71808594 36.88525391 16.34960938 C33.53567395 20.14739454 30.4346257 24.14751088 27.3125 28.1328125 C28.89723546 33.07795086 31.80559223 36.70656935 34.9375 40.7578125 C36.01887711 42.17658971 37.09960339 43.59586321 38.1796875 45.015625 C38.71045898 45.71075195 39.24123047 46.40587891 39.78808594 47.12207031 C43.03558617 51.40560842 46.17078201 55.77136871 49.3125 60.1328125 C48.6525 61.4528125 47.9925 62.7728125 47.3125 64.1328125 C36.17103439 65.48989327 36.17103439 65.48989327 32.2421875 62.62109375 C30.40299402 60.21770323 28.87352957 57.72647004 27.3125 55.1328125 C25.98883027 53.23531239 24.63262345 51.36397648 23.2722168 49.49267578 C21.25994994 46.72409476 19.28827227 43.92751654 17.3125 41.1328125 C14.84449953 42.28454605 13.26466435 43.18064815 11.3125 45.1328125 C11.05723877 47.98709711 10.89231716 50.77348021 10.8125 53.6328125 C10.58277027 61.86254223 10.58277027 61.86254223 8.3125 64.1328125 C5.74609375 64.36328125 5.74609375 64.36328125 2.75 64.3203125 C1.75871094 64.31386719 0.76742187 64.30742187 -0.25390625 64.30078125 C-2.6875 64.1328125 -2.6875 64.1328125 -3.6875 63.1328125 C-3.78670863 61.20519433 -3.81549365 59.27391896 -3.81689453 57.34375 C-3.82004669 56.1057666 -3.82319885 54.8677832 -3.82644653 53.59228516 C-3.82465675 52.23079391 -3.8226058 50.86930299 -3.8203125 49.5078125 C-3.82098559 48.12158186 -3.82195566 46.73535133 -3.82321167 45.34912109 C-3.8246884 42.44041828 -3.8225349 39.53174613 -3.81787109 36.62304688 C-3.81217381 32.88684652 -3.81545294 29.15071798 -3.82144356 25.41452026 C-3.82504985 22.55101984 -3.82391027 19.68753657 -3.82131577 16.82403564 C-3.82064668 15.44606518 -3.82147426 14.06809318 -3.82379532 12.69012451 C-3.82632292 10.76737496 -3.82179024 8.84461998 -3.81689453 6.921875 C-3.81609894 5.82568848 -3.81530334 4.72950195 -3.81448364 3.60009766 C-3.63662487 0.14431161 -3.4767373 0.17181551 0 0 Z " fill="#080808" transform="translate(229.6875,338.8671875)"/>
<path d="M0 0 C0.66 0 1.32 0 2 0 C2.44085938 0.82564453 2.44085938 0.82564453 2.890625 1.66796875 C6.38845753 8.15102043 10.0210415 14.54870777 13.6875 20.9375 C15.2594275 23.68762978 16.82940474 26.43885728 18.39794922 29.19091797 C19.47038329 31.07135478 20.54494614 32.95057904 21.62158203 34.82861328 C23.17543582 37.54631731 24.71443517 40.27193011 26.25 43 C26.72783936 43.83007568 27.20567871 44.66015137 27.69799805 45.51538086 C28.13281494 46.29405518 28.56763184 47.07272949 29.015625 47.875 C29.40008789 48.55304688 29.78455078 49.23109375 30.18066406 49.9296875 C31 52 31 52 31 57 C10.87 57 -9.26 57 -30 57 C-28.46453059 51.62585706 -27.35336914 48.46833033 -24.625 43.875 C-23.90842405 42.65259579 -23.19230878 41.42992144 -22.4765625 40.20703125 C-22.0837207 39.5413916 -21.69087891 38.87575195 -21.28613281 38.18994141 C-18.82509063 33.99944247 -16.41377485 29.7803458 -14 25.5625 C-13.48872559 24.67006592 -12.97745117 23.77763184 -12.45068359 22.8581543 C-8.14698094 15.31808375 -4.01893172 7.6950722 0 0 Z " fill="#D0AC63" transform="translate(86,258)"/>
<path d="M0 0 C2.3046875 2.140625 2.3046875 2.140625 4 4 C2.6302836 7.99500618 0.74277578 10.80009492 -2 14 C-4.98990775 13.56030768 -7.00409046 12.9975652 -9.625 11.4375 C-15.12286875 9.09581516 -21.33025089 9.11008363 -27 11 C-27.33397787 13.87413125 -27.33397787 13.87413125 -27 17 C-24.37412833 19.44263696 -21.96139181 20.49974533 -18.515625 21.359375 C-17.66589111 21.58463867 -16.81615723 21.80990234 -15.94067383 22.04199219 C-15.05275146 22.27563477 -14.1648291 22.50927734 -13.25 22.75 C-5.95367334 24.78715475 0.24823743 26.70756356 5 33 C7.34561064 37.69122128 6.64194318 44.38017782 5.421875 49.359375 C2.98519097 55.07450663 -1.50833138 58.32362187 -7 61 C-17.01452158 63.7206117 -27.15122444 62.67911934 -36.51171875 58.484375 C-39.10943892 56.93471462 -40.96769364 55.22744584 -43 53 C-41.6302836 49.00499382 -39.74277578 46.19990508 -37 43 C-34.11592924 43.46145132 -31.9788418 44.52868745 -29.5 46 C-24.50206096 48.91634498 -19.83487308 49.79363216 -14 49 C-10.44500588 47.57594383 -10.44500588 47.57594383 -8 45 C-7.49830585 41.83073436 -7.49830585 41.83073436 -8 39 C-8.57105469 38.82984375 -9.14210938 38.6596875 -9.73046875 38.484375 C-11.46934736 37.96464658 -13.20613754 37.4379068 -14.94140625 36.90625 C-17.04218822 36.28379608 -19.15547681 35.70252325 -21.27734375 35.15625 C-28.47286124 33.20833862 -34.26072835 30.98317497 -39 25 C-41.58977492 19.78626171 -41.68028425 14.71102826 -41 9 C-38.11778722 3.12882581 -33.3901682 -1.04344674 -27.26953125 -3.45703125 C-18.12019876 -5.64594212 -8.24910761 -4.53001841 0 0 Z " fill="#090908" transform="translate(495,342)"/>
<path d="M0 0 C5.42215877 2.35340352 8.09779619 6.14536023 10.60546875 11.38671875 C12.30818495 16.49486736 12.58152445 21.00235411 10.51171875 26.05859375 C7.35666128 31.7309843 4.53327006 34.76480663 -1.39453125 37.38671875 C-2.38453125 37.88171875 -2.38453125 37.88171875 -3.39453125 38.38671875 C-8.84645118 39.07669202 -13.72112023 38.6514393 -18.53125 35.89453125 C-23.22910154 32.09291554 -25.92173609 27.24894793 -26.90234375 21.3125 C-27.14682474 14.81745514 -26.38448119 10.5316542 -22.39453125 5.38671875 C-15.79530245 -1.06099715 -9.02081389 -2.3103879 0 0 Z " fill="#DEDED5" transform="translate(324.39453125,352.61328125)"/>
<path d="M0 0 C2.66753493 1.44046886 4.05140686 2.61390686 6.125 4.6875 C7.445 4.6875 8.765 4.6875 10.125 4.6875 C11.25 10.4375 11.25 10.4375 10.125 12.6875 C12.435 12.6875 14.745 12.6875 17.125 12.6875 C17.125 13.0175 17.125 13.3475 17.125 13.6875 C4.75 14.1825 4.75 14.1825 -7.875 14.6875 C-7.875 17.9875 -7.875 21.2875 -7.875 24.6875 C-0.945 25.1825 -0.945 25.1825 6.125 25.6875 C6.125 28.6575 6.125 31.6275 6.125 34.6875 C-0.5060252 38.76813089 -6.11988922 39.75943351 -13.875 38.6875 C-19.30392955 36.12109694 -23.41451151 31.78271069 -25.98828125 26.328125 C-27.72285828 21.16260046 -27.97685909 15.49180231 -25.96484375 10.37109375 C-20.26615638 0.7144756 -10.98171022 -4.46278011 0 0 Z " fill="#DBDBD2" transform="translate(192.875,352.3125)"/>
<path d="M0 0 C0.98871094 -0.01417969 1.97742188 -0.02835937 2.99609375 -0.04296875 C5.5625 0.1875 5.5625 0.1875 7.5625 2.1875 C7.81646729 4.69238281 7.81646729 4.69238281 7.82128906 7.890625 C7.82759338 9.08526367 7.83389771 10.27990234 7.84039307 11.51074219 C7.8363446 12.80657227 7.83229614 14.10240234 7.828125 15.4375 C7.82947178 16.77506582 7.83141243 18.11263117 7.83392334 19.45019531 C7.836874 22.25460466 7.83257894 25.05888669 7.82324219 27.86328125 C7.81184754 31.46154922 7.81840734 35.05951886 7.83038712 38.65777588 C7.83760736 41.42010758 7.83531706 44.18236833 7.83013153 46.94470215 C7.82814475 48.91788933 7.83422842 50.89107926 7.84039307 52.86425781 C7.83408875 54.05889648 7.82778442 55.25353516 7.82128906 56.484375 C7.81890228 58.06750488 7.81890228 58.06750488 7.81646729 59.68261719 C7.5625 62.1875 7.5625 62.1875 5.5625 64.1875 C2.99609375 64.41796875 2.99609375 64.41796875 0 64.375 C-0.99128906 64.36855469 -1.98257812 64.36210937 -3.00390625 64.35546875 C-5.4375 64.1875 -5.4375 64.1875 -6.4375 63.1875 C-6.53670863 61.25988183 -6.56549365 59.32860646 -6.56689453 57.3984375 C-6.57004669 56.1604541 -6.57319885 54.9224707 -6.57644653 53.64697266 C-6.57465675 52.28548141 -6.5726058 50.92399049 -6.5703125 49.5625 C-6.57098559 48.17626936 -6.57195566 46.79003883 -6.57321167 45.40380859 C-6.5746884 42.49510578 -6.5725349 39.58643363 -6.56787109 36.67773438 C-6.56217381 32.94153402 -6.56545294 29.20540548 -6.57144356 25.46920776 C-6.57504985 22.60570734 -6.57391027 19.74222407 -6.57131577 16.87872314 C-6.57064668 15.50075268 -6.57147426 14.12278068 -6.57379532 12.74481201 C-6.57632292 10.82206246 -6.57179024 8.89930748 -6.56689453 6.9765625 C-6.56609894 5.88037598 -6.56530334 4.78418945 -6.56448364 3.65478516 C-6.33122089 -0.87749732 -3.99742718 0.02599107 0 0 Z " fill="#0E0E0D" transform="translate(432.4375,338.8125)"/>
<path d="M0 0 C2.7302389 -0.1083667 5.45614543 -0.18746694 8.1875 -0.25 C8.95642578 -0.28351563 9.72535156 -0.31703125 10.51757812 -0.3515625 C14.50993369 -0.42010079 16.51744638 -0.2935378 20.01171875 1.83203125 C22 4 22 4 22.625 6.9375 C21.80638747 10.94870142 20.10031586 12.41640345 17 15 C13.93618406 16.53190797 10.73034134 16.10243613 7.375 16.0625 C4.94125 16.041875 2.5075 16.02125 0 16 C0 10.72 0 5.44 0 0 Z " fill="#DADBD1" transform="translate(376,352)"/>
<path d="M0 0 C0.33 0 0.66 0 1 0 C1.33 19.8 1.66 39.6 2 60 C21.14 60.33 40.28 60.66 60 61 C60 59.02 60 57.04 60 55 C62.76390737 57.40339772 63.04065919 58.16263678 64 62 C-7.94 62 -79.88 62 -154 62 C-154 61.67 -154 61.34 -154 61 C-103.18 61 -52.36 61 0 61 C0 40.87 0 20.74 0 0 Z " fill="#AA8952" transform="translate(477,253)"/>
<path d="M0 0 C2.87796405 3.37591091 4.21870249 6.83620164 5.6875 11 C6.34298828 12.8253125 6.34298828 12.8253125 7.01171875 14.6875 C8 18 8 18 8 22 C2.72 22 -2.56 22 -8 22 C-4.85714286 4.85714286 -4.85714286 4.85714286 0 0 Z " fill="#D0D1C9" transform="translate(42,357)"/>
<path d="M0 0 C0.33 0.99 0.66 1.98 1 3 C0.67 3.66 0.34 4.32 0 5 C-0.08658569 7.55362604 -0.11562516 10.0795442 -0.09765625 12.6328125 C-0.0962413 13.38464813 -0.09482635 14.13648376 -0.09336853 14.91110229 C-0.08776465 17.3157751 -0.07521157 19.72035527 -0.0625 22.125 C-0.0574855 23.75390491 -0.0529225 25.38281127 -0.04882812 27.01171875 C-0.03779397 31.00784827 -0.02052679 35.00390842 0 39 C0.99 38.01 1.98 37.02 3 36 C3.66 36.66 4.32 37.32 5 38 C2.69 39.98 0.38 41.96 -2 44 C-2.04934399 38.05518819 -2.08569282 32.11049491 -2.10986328 26.16552734 C-2.11993671 24.14206873 -2.13359595 22.11862472 -2.15087891 20.09521484 C-2.17506847 17.19104411 -2.18646949 14.28706539 -2.1953125 11.3828125 C-2.20563507 10.47443634 -2.21595764 9.56606018 -2.22659302 8.63015747 C-2.22674408 7.78943695 -2.22689514 6.94871643 -2.22705078 6.08251953 C-2.231492 5.34083527 -2.23593323 4.599151 -2.24050903 3.83499146 C-2 2 -2 2 0 0 Z " fill="#D8D4BD" transform="translate(152,250)"/>
<path d="M0 0 C0.33 0 0.66 0 1 0 C1 1.98 1 3.96 1 6 C16.18 6 31.36 6 47 6 C47 6.33 47 6.66 47 7 C30.83 7 14.66 7 -2 7 C-1.34 4.69 -0.68 2.38 0 0 Z " fill="#D1B273" transform="translate(58,308)"/>
<path d="M0 0 C5 5 5 5 5 8 C4.01 7.67 3.02 7.34 2 7 C1.67 16.57 1.34 26.14 1 36 C0.67 36 0.34 36 0 36 C0 24.12 0 12.24 0 0 Z " fill="#C4C3BB" transform="translate(98,365)"/>
<path d="M0 0 C0.33 0.99 0.66 1.98 1 3 C-0.65 3 -2.3 3 -4 3 C-3.34 7.29 -2.68 11.58 -2 16 C-4.31 16.66 -6.62 17.32 -9 18 C-9.33 19.32 -9.66 20.64 -10 22 C-10 19.03 -10 16.06 -10 13 C-7.03 13.495 -7.03 13.495 -4 14 C-4.165 13.319375 -4.33 12.63875 -4.5 11.9375 C-5.07089059 8.5835178 -5.06659023 5.39610195 -5 2 C-3.35 2 -1.7 2 0 2 C0 1.34 0 0.68 0 0 Z " fill="#D3C193" transform="translate(286,152)"/>
<path d="M0 0 C1.32 0.33 2.64 0.66 4 1 C2.7934375 2.0828125 2.7934375 2.0828125 1.5625 3.1875 C-1.06891929 6.07564312 -1.59377402 7.24240969 -2 11 C-2.33 11.66 -2.66 12.32 -3 13 C-3.99 12.01 -4.98 11.02 -6 10 C-4.6302836 6.00499382 -2.74277578 3.19990508 0 0 Z " fill="#1F1E1C" transform="translate(458,385)"/>
<path d="M0 0 C3.7952131 1.49097658 5.61042731 3.75700849 8 7 C5 8 5 8 3 8 C3 6.68 3 5.36 3 4 C2.01 3.67 1.02 3.34 0 3 C-0.66 4.32 -1.32 5.64 -2 7 C-2.66 6.67 -3.32 6.34 -4 6 C-2.84826645 3.53199953 -1.95216435 1.95216435 0 0 Z " fill="#CFB67E" transform="translate(297,131)"/>
<path d="M0 0 C0.66 0 1.32 0 2 0 C3.15837626 4.05431692 2.83691257 6.21812119 1 10 C-0.32 10 -1.64 10 -3 10 C-2.69201674 8.51988629 -2.378482 7.04092675 -2.0625 5.5625 C-1.88847656 4.73878906 -1.71445312 3.91507813 -1.53515625 3.06640625 C-1 1 -1 1 0 0 Z " fill="#E2DDCA" transform="translate(297,224)"/>
<path d="M0 0 C0.33 0 0.66 0 1 0 C1 1.98 1 3.96 1 6 C2.32 5.67 3.64 5.34 5 5 C5.04898437 5.69867188 5.09796875 6.39734375 5.1484375 7.1171875 C5.22320312 8.02726563 5.29796875 8.93734375 5.375 9.875 C5.44460938 10.77992188 5.51421875 11.68484375 5.5859375 12.6171875 C5.79568132 15.17941903 5.79568132 15.17941903 8 17 C6.35 17.66 4.7 18.32 3 19 C2.91840426 14.83861737 3.01751476 11.0527516 4 7 C2.68 7 1.36 7 0 7 C0 4.69 0 2.38 0 0 Z " fill="#CDC1A6" transform="translate(474,200)"/>
<path d="M0 0 C0.99 0 1.98 0 3 0 C3.33 1.98 3.66 3.96 4 6 C4.66 6 5.32 6 6 6 C5.1875 7.9375 5.1875 7.9375 4 10 C3.01 10.33 2.02 10.66 1 11 C0.67 10.01 0.34 9.02 0 8 C0.66 8 1.32 8 2 8 C1.34 5.36 0.68 2.72 0 0 Z " fill="#9E7A39" transform="translate(146,288)"/>
<path d="M0 0 C1.17046875 0.03609375 2.3409375 0.0721875 3.546875 0.109375 C4.43890625 0.15578125 5.3309375 0.2021875 6.25 0.25 C6.58 1.57 6.91 2.89 7.25 4.25 C6.26 4.745 6.26 4.745 5.25 5.25 C4.92 4.26 4.59 3.27 4.25 2.25 C-2.10700087 1.51690041 -2.10700087 1.51690041 -7.97265625 3.5859375 C-9.66890579 5.06972046 -11.24407433 6.57453303 -12.75 8.25 C-9.96800038 1.75866756 -7.09427614 -0.28377105 0 0 Z " fill="#282823" transform="translate(269.75,338.75)"/>
<path d="M0 0 C0.33 0 0.66 0 1 0 C1.38281159 5.23175837 0.21854707 8.37802694 -2 13 C-2.99 12.67 -3.98 12.34 -5 12 C-4.67 9.36 -4.34 6.72 -4 4 C-2.68 4 -1.36 4 0 4 C0 2.68 0 1.36 0 0 Z " fill="#CFB57C" transform="translate(407,206)"/>
<path d="M0 0 C0.66 0.33 1.32 0.66 2 1 C2 1.66 2 2.32 2 3 C1.34 3.66 0.68 4.32 0 5 C-0.433125 5.45375 -0.86625 5.9075 -1.3125 6.375 C-3.42377362 8.4080783 -5.69439203 10.19290186 -8 12 C-8.66 11.67 -9.32 11.34 -10 11 C-6.7 7.37 -3.4 3.74 0 0 Z " fill="#AD8F54" transform="translate(161,282)"/>
<path d="M0 0 C0.66 0 1.32 0 2 0 C2.99 2.31 3.98 4.62 5 7 C4.01 7.33 3.02 7.66 2 8 C2 7.34 2 6.68 2 6 C0.35 6.66 -1.3 7.32 -3 8 C-1.125 2.25 -1.125 2.25 0 0 Z " fill="#D1B477" transform="translate(86,258)"/>
<path d="M0 0 C0.33 0 0.66 0 1 0 C1 1.65 1 3.3 1 5 C0.01 5 -0.98 5 -2 5 C-2 7.31 -2 9.62 -2 12 C-4.31 11.67 -6.62 11.34 -9 11 C-9 10.34 -9 9.68 -9 9 C-7.68 8.67 -6.36 8.34 -5 8 C-4.67 6.68 -4.34 5.36 -4 4 C-2.68 4 -1.36 4 0 4 C0 2.68 0 1.36 0 0 Z " fill="#D9CEAB" transform="translate(175,206)"/>
<path d="M0 0 C2 2 2 2 2 6 C2.99 6 3.98 6 5 6 C5.33 8.64 5.66 11.28 6 14 C5.01 14.33 4.02 14.66 3 15 C3.33 12.36 3.66 9.72 4 7 C2.35 7.33 0.7 7.66 -1 8 C-0.67 5.36 -0.34 2.72 0 0 Z " fill="#D6C296" transform="translate(419,204)"/>
<path d="M0 0 C1.32 0.33 2.64 0.66 4 1 C3.01 1 2.02 1 1 1 C1.33 3.97 1.66 6.94 2 10 C0.35 9.67 -1.3 9.34 -3 9 C-3.33 10.32 -3.66 11.64 -4 13 C-4.1875 10.6875 -4.1875 10.6875 -4 8 C-3.02149805 6.97895449 -2.02019573 5.9793879 -1 5 C-0.27802838 2.39388923 -0.27802838 2.39388923 0 0 Z " fill="#D1CAB3" transform="translate(448,197)"/>
<path d="M0 0 C0.99 0.33 1.98 0.66 3 1 C2.01 1.495 2.01 1.495 1 2 C1.33 4.97 1.66 7.94 2 11 C0.35 10.67 -1.3 10.34 -3 10 C-2.67 8.35 -2.34 6.7 -2 5 C-1.34 5 -0.68 5 0 5 C0 3.35 0 1.7 0 0 Z " fill="#D9D2BE" transform="translate(123,188)"/>
<path d="M0 0 C0.33 0 0.66 0 1 0 C1 2.31 1 4.62 1 7 C-0.65 7.66 -2.3 8.32 -4 9 C-3.47181039 5.19703482 -2.56226812 2.88255163 0 0 Z " fill="#A98B55" transform="translate(132,178)"/>
<path d="M0 0 C6 7.71428571 6 7.71428571 6 11 C5.01 11.33 4.02 11.66 3 12 C2.49440092 10.56445975 1.9957251 9.1264798 1.5 7.6875 C1.2215625 6.88699219 0.943125 6.08648437 0.65625 5.26171875 C0 3 0 3 0 0 Z " fill="#CFB377" transform="translate(106,292)"/>
<path d="M0 0 C0.66 0.33 1.32 0.66 2 1 C1.8125 3.375 1.8125 3.375 1 6 C-1.5625 7.3125 -1.5625 7.3125 -4 8 C-2.87548273 5.0280615 -1.77706209 2.66559313 0 0 Z " fill="#D2B478" transform="translate(67,293)"/>
<path d="M0 0 C1.31223496 3.93670488 0.24296256 6.12488144 -1 10 C-1.66 9.34 -2.32 8.68 -3 8 C-2.67 7.34 -2.34 6.68 -2 6 C-2.66 6 -3.32 6 -4 6 C-2.25 1.125 -2.25 1.125 0 0 Z " fill="#A98748" transform="translate(149,210)"/>
<path d="M0 0 C0 3.63 0 7.26 0 11 C-0.33 11 -0.66 11 -1 11 C-1.37125 9.329375 -1.37125 9.329375 -1.75 7.625 C-2.61005339 3.95384802 -2.61005339 3.95384802 -5.125 2.5625 C-5.74375 2.376875 -6.3625 2.19125 -7 2 C-2.25 0 -2.25 0 0 0 Z " fill="#CFB783" transform="translate(335,197)"/>
<path d="M0 0 C0.33 0 0.66 0 1 0 C1.08097324 2.27024968 1.13917704 4.54132075 1.1875 6.8125 C1.22230469 8.07707031 1.25710938 9.34164063 1.29296875 10.64453125 C1 14 1 14 -0.51171875 15.94921875 C-1.00285156 16.29597656 -1.49398438 16.64273437 -2 17 C-2.66 16.67 -3.32 16.34 -4 16 C-3.2884375 14.824375 -3.2884375 14.824375 -2.5625 13.625 C-0.60263251 9.07810742 -0.28089128 4.90106856 0 0 Z " fill="#A9A9A4" transform="translate(501,379)"/>
<path d="M0 0 C2 3 2 3 2 6 C2.99 6 3.98 6 5 6 C5 7.65 5 9.3 5 11 C4.67 9.68 4.34 8.36 4 7 C2.35 7.66 0.7 8.32 -1 9 C-0.67 6.03 -0.34 3.06 0 0 Z " fill="#CAC2A9" transform="translate(146,199)"/>
<path d="M0 0 C2.39854906 2.08905886 3.83687696 3.52228253 4.875 6.5625 C5 9 5 9 3 12 C3 9.69 3 7.38 3 5 C1.68 4.67 0.36 4.34 -1 4 C-0.67 2.68 -0.34 1.36 0 0 Z " fill="#AB8D57" transform="translate(135,179)"/>
<path d="M0 0 C0.33 0 0.66 0 1 0 C1 2.97 1 5.94 1 9 C-0.65 9 -2.3 9 -4 9 C-3.67 8.01 -3.34 7.02 -3 6 C-2.34 6 -1.68 6 -1 6 C-1.020625 5.195625 -1.04125 4.39125 -1.0625 3.5625 C-1 1 -1 1 0 0 Z " fill="#E0DDCA" transform="translate(285,145)"/>
<path d="M0 0 C0.99 0.33 1.98 0.66 3 1 C3 3 3 3 0.75 5.5 C-2 8 -2 8 -6 10 C-4.02 6.7 -2.04 3.4 0 0 Z " fill="#CACBC2" transform="translate(499,346)"/>
<path d="M0 0 C0.33 0.66 0.66 1.32 1 2 C1.66 2 2.32 2 3 2 C3 4.64 3 7.28 3 10 C1.68 9.34 0.36 8.68 -1 8 C-0.34 7.67 0.32 7.34 1 7 C0.67 4.69 0.34 2.38 0 0 Z " fill="#D2B983" transform="translate(277,174)"/>
<path d="M0 0 C0.33 0.66 0.66 1.32 1 2 C1.66 2.33 2.32 2.66 3 3 C2.525625 3.391875 2.05125 3.78375 1.5625 4.1875 C-0.35179633 6.40808374 -0.61266988 8.13375709 -1 11 C-1.66 10.67 -2.32 10.34 -3 10 C-2.69201674 8.51988629 -2.378482 7.04092675 -2.0625 5.5625 C-1.88847656 4.73878906 -1.71445312 3.91507813 -1.53515625 3.06640625 C-1 1 -1 1 0 0 Z " fill="#AB8E56" transform="translate(458,181)"/>
<path d="M0 0 C-0.66 2.31 -1.32 4.62 -2 7 C-3.32 5.68 -4.64 4.36 -6 3 C-2.25 0 -2.25 0 0 0 Z " fill="#CACAC2" transform="translate(404,376)"/>
<path d="M0 0 C2.50037734 2.17424117 3.43628586 3.73045798 4 7 C2.02 7 0.04 7 -2 7 C-1.34 6.67 -0.68 6.34 0 6 C0 4.02 0 2.04 0 0 Z " fill="#AB9163" transform="translate(537,308)"/>
<path d="M0 0 C0.66 0.33 1.32 0.66 2 1 C-0.97 5.95 -0.97 5.95 -4 11 C-5 8 -5 8 -4.00390625 5.95703125 C-3.52824219 5.24933594 -3.05257812 4.54164063 -2.5625 3.8125 C-2.08941406 3.09707031 -1.61632813 2.38164062 -1.12890625 1.64453125 C-0.75636719 1.10183594 -0.38382813 0.55914062 0 0 Z " fill="#E4DDC6" transform="translate(62,298)"/>
<path d="M0 0 C2.31 0.33 4.62 0.66 7 1 C7 3.97 7 6.94 7 10 C6.67 10 6.34 10 6 10 C6 7.36 6 4.72 6 2 C4.02 2.33 2.04 2.66 0 3 C0 2.01 0 1.02 0 0 Z " fill="#DED4BD" transform="translate(424,214)"/>
<path d="M0 0 C2.475 0.495 2.475 0.495 5 1 C3.515 4.465 3.515 4.465 2 8 C1.67 8 1.34 8 1 8 C0.67 5.36 0.34 2.72 0 0 Z " fill="#A98A56" transform="translate(116,206)"/>
<path d="M0 0 C-0.33 3.63 -0.66 7.26 -1 11 C-1.33 11 -1.66 11 -2 11 C-2.07347656 10.04287109 -2.07347656 10.04287109 -2.1484375 9.06640625 C-2.22320312 8.24011719 -2.29796875 7.41382813 -2.375 6.5625 C-2.44460938 5.73878906 -2.51421875 4.91507813 -2.5859375 4.06640625 C-2.72257812 3.38449219 -2.85921875 2.70257813 -3 2 C-3.66 1.67 -4.32 1.34 -5 1 C-2 0 -2 0 0 0 Z " fill="#CFB277" transform="translate(320,165)"/>
<path d="M0 0 C1.32 0 2.64 0 4 0 C4 2.97 4 5.94 4 9 C3.01 9.33 2.02 9.66 1 10 C1 9.01 1 8.02 1 7 C1.66 7 2.32 7 3 7 C2.42547254 3.06924356 2.42547254 3.06924356 0 0 Z " fill="#E4E4DC" transform="translate(194,379)"/>
<path d="M0 0 C0.66 0.33 1.32 0.66 2 1 C0.88200014 2.33920838 -0.24461897 3.67122556 -1.375 5 C-2.00148438 5.7425 -2.62796875 6.485 -3.2734375 7.25 C-4.12808594 8.11625 -4.12808594 8.11625 -5 9 C-5.66 9 -6.32 9 -7 9 C-5.44499019 5.18315774 -2.96404505 2.80804268 0 0 Z " fill="#191916" transform="translate(297,344)"/>
<path d="M0 0 C0.99 0.33 1.98 0.66 3 1 C1.38405168 3.04119788 -0.2856382 5.04072937 -2 7 C-2.66 7 -3.32 7 -4 7 C-3.43628586 3.73045798 -2.50037734 2.17424117 0 0 Z " fill="#CFB581" transform="translate(412,198)"/>
<path d="M0 0 C0.33 0 0.66 0 1 0 C1 3.3 1 6.6 1 10 C1.66 10.33 2.32 10.66 3 11 C1.02 11.99 1.02 11.99 -1 13 C-0.67 8.71 -0.34 4.42 0 0 Z " fill="#DED3B2" transform="translate(325,189)"/>
<path d="M0 0 C3 1 3 1 4.1875 3.0625 C4.455625 3.701875 4.72375 4.34125 5 5 C3.33333333 5 1.66666667 5 0 5 C0 3.35 0 1.7 0 0 Z " fill="#D0CFC8" transform="translate(99,367)"/>
<path d="M0 0 C1.32 0.66 2.64 1.32 4 2 C2.625 3.5 2.625 3.5 1 5 C0.34 5 -0.32 5 -1 5 C-0.67 3.35 -0.34 1.7 0 0 Z " fill="#CBB073" transform="translate(167,216)"/>
</svg>
